<svg xmlns="http://www.w3.org/2000/svg" xmlns:xlink="http://www.w3.org/1999/xlink" xmlns:inkscape="http://www.inkscape.org/namespaces/inkscape" version="1.1" width="256" height="256" viewBox="0 0 256 256">
<defs>
<path id="font_1_51" d="M.22999573 .2889862H.4019928C.46699525 .2889862 .49499513 .2630005 .49499513 .20298767V.17298889C.49398805 .1539917 .49398805 .13598633 .49398805 .125 .49398805 .055999757 .49798585 .034988405 .5159912 0H.6769867V.026992798C.6539917 .039993287 .644989 .054992677 .644989 .08699036 .6409912 .3019867 .6369934 .31199647 .5439911 .35198976 .6259918 .38398744 .6669922 .44299317 .6669922 .5319977 .6669922 .58999636 .6469879 .6429901 .6119995 .67900088 .57899478 .71299746 .5329895 .72898867 .47099305 .72898867H.07998657V0H.22999573V.2889862M.22999573 .4139862V.60398867H.41099549C.45399476 .60398867 .47099305 .59999087 .48999024 .58499148 .5079956 .56999209 .5169983 .54499819 .5169983 .5109863 .5169983 .47599793 .5079956 .44799806 .48999024 .43299867 .47299195 .4189911 .45399476 .4139862 .41099549 .4139862H.22999573Z"/>
</defs>
<use data-text="R" xlink:href="#font_1_51" transform="matrix(176,0,0,-176,61,192.5)" fill="#0f172a"/>
</svg>
